<svg width="25" height="30" viewBox="0 0 25 30" fill="none" xmlns="http://www.w3.org/2000/svg">
<path d="M25 6.07199V20.3577C25 23.2492 21.5612 25.7148 17.7443 25.7148L21.2588 28.4895C21.5907 28.7515 21.4041 29.2863 20.9821 29.2863H4.01786C3.59498 29.2863 3.41004 28.7509 3.74124 28.4895L7.25569 25.7148C3.44978 25.7148 0 23.2569 0 20.3577V6.07199C0 3.11334 3.57143 0.714844 7.14286 0.714844H17.8571C21.4844 0.714844 25 3.11334 25 6.07199ZM22.3214 13.6613V7.41127C22.3214 6.6716 21.7218 6.07199 20.9821 6.07199H4.01786C3.27818 6.07199 2.67857 6.6716 2.67857 7.41127V13.6613C2.67857 14.4009 3.27818 15.0006 4.01786 15.0006H20.9821C21.7218 15.0006 22.3214 14.4009 22.3214 13.6613ZM12.5 17.2327C10.7741 17.2327 9.375 18.6318 9.375 20.3577C9.375 22.0836 10.7741 23.4827 12.5 23.4827C14.2259 23.4827 15.625 22.0836 15.625 20.3577C15.625 18.6318 14.2259 17.2327 12.5 17.2327Z" fill="black"/>
</svg>
