<svg width="20" height="20" viewBox="0 0 20 20" fill="none" xmlns="http://www.w3.org/2000/svg">
<g clip-path="url(#clip0_431_3454)">
<path d="M20 9.80288C20 4.38758 15.639 0 10.2564 0C4.87386 0 0.512817 4.38758 0.512817 9.80288C0.512817 14.6956 4.07591 18.7512 8.73397 19.4872V12.6366H6.25879V9.80288H8.73397V7.64309C8.73397 5.18644 10.1877 3.82945 12.4141 3.82945C13.4804 3.82945 14.5954 4.02076 14.5954 4.02076V6.43196H13.3665C12.1564 6.43196 11.7788 7.18773 11.7788 7.96287V9.80288H14.4811L14.0489 12.6366H11.7788V19.4872C16.4369 18.7512 20 14.6956 20 9.80288Z" fill="#E9E7DA"/>
</g>
<defs>
<clipPath id="clip0_431_3454">
<rect width="20" height="20" fill="white"/>
</clipPath>
</defs>
</svg>
