<svg width="20" height="26" viewBox="0 0 20 26" fill="none" xmlns="http://www.w3.org/2000/svg">
<path d="M10 0.5C4.47727 0.5 0 4.80328 0 10.113C0 14.4046 6.53576 22.2286 9.03981 25.0684C9.15726 25.2035 9.30412 25.3122 9.47003 25.3868C9.63594 25.4613 9.81686 25.5 10 25.5C10.1831 25.5 10.3641 25.4613 10.53 25.3868C10.6959 25.3122 10.8427 25.2035 10.9602 25.0684C13.4642 22.2286 20 14.4059 20 10.113C20 4.80328 15.5227 0.5 10 0.5ZM10 12.9997C8.20424 12.9997 6.74973 11.6 6.74973 9.87477C6.74973 8.14825 8.20559 6.74985 10 6.74985C11.7944 6.74985 13.2503 8.14825 13.2503 9.87477C13.2503 11.6 11.7944 12.9997 10 12.9997Z" fill="black"/>
</svg>
