<svg width="50" height="39" viewBox="0 0 50 39" fill="none" xmlns="http://www.w3.org/2000/svg">
<path d="M40.8073 17.3003C40.8073 17.3003 41.467 20.5295 41.6146 21.2066H38.7153C39.0017 20.434 40.1042 17.4306 40.1042 17.4306C40.0868 17.4566 40.3906 16.6406 40.5642 16.1371L40.8073 17.3003ZM50 4.16667V34.7222C50 37.0226 48.1337 38.8889 45.8333 38.8889H4.16667C1.86632 38.8889 0 37.0226 0 34.7222V4.16667C0 1.86632 1.86632 0 4.16667 0H45.8333C48.1337 0 50 1.86632 50 4.16667ZM13.2378 25.9722L18.724 12.5H15.0347L11.6233 21.7014L11.25 19.8351L10.0347 13.6372C9.83507 12.7778 9.21875 12.5347 8.45486 12.5H2.83854L2.77778 12.7691C4.14931 13.1163 5.37326 13.6198 6.44097 14.2535L9.54861 25.9722H13.2378ZM21.4323 25.9896L23.6198 12.5H20.1302L17.9514 25.9896H21.4323ZM33.5764 21.5799C33.5937 20.0434 32.6562 18.8715 30.651 17.908C29.4271 17.2917 28.6806 16.875 28.6806 16.2413C28.6979 15.6684 29.3142 15.0781 30.6858 15.0781C31.8229 15.0521 32.6563 15.3212 33.2812 15.5903L33.5938 15.7378L34.0712 12.8212C33.3854 12.5521 32.2917 12.2483 30.9462 12.2483C27.5 12.2483 25.0781 14.0885 25.0608 16.7101C25.0347 18.6458 26.7969 19.7222 28.1163 20.3733C29.4618 21.033 29.9219 21.467 29.9219 22.0486C29.9045 22.9514 28.8281 23.3681 27.8299 23.3681C26.441 23.3681 25.6944 23.151 24.5573 22.6476L24.0972 22.4306L23.6111 25.4601C24.4271 25.8333 25.9375 26.1632 27.5 26.1806C31.1632 26.1892 33.5503 24.375 33.5764 21.5799ZM45.8333 25.9896L43.0208 12.5H40.3212C39.4878 12.5 38.8542 12.7431 38.4983 13.6198L33.316 25.9896H36.9792C36.9792 25.9896 37.5781 24.3229 37.7083 23.967H42.1875C42.2917 24.4444 42.6042 25.9896 42.6042 25.9896H45.8333Z" fill="black"/>
</svg>
