<svg width="30" height="30" viewBox="0 0 30 30" fill="none" xmlns="http://www.w3.org/2000/svg">
<path d="M30 14.9013C30 23.1126 23.2863 29.7655 15 29.7655C6.71371 29.7655 0 23.1126 0 14.9013C0 6.69003 6.71371 0.0371094 15 0.0371094C23.2863 0.0371094 30 6.69003 30 14.9013ZM16.0282 21.728L24.2238 13.6067C24.7923 13.0433 24.7923 12.1322 24.2238 11.5748L23.1956 10.5559C22.627 9.99252 21.7077 9.99252 21.1452 10.5559L15 16.6454L8.85484 10.5559C8.28629 9.99252 7.36694 9.99252 6.80444 10.5559L5.77621 11.5748C5.20766 12.1382 5.20766 13.0493 5.77621 13.6067L13.9718 21.728C14.5403 22.2914 15.4597 22.2914 16.0282 21.728Z" fill="#E5E5E5"/>
</svg>
