<svg width="25" height="23" viewBox="0 0 25 23" fill="none" xmlns="http://www.w3.org/2000/svg">
<path d="M21.9061 14.2776H9.18281L9.46688 15.6664H21.117C21.7854 15.6664 22.2809 16.2872 22.1327 16.939L21.8933 17.9926C22.7045 18.3864 23.2639 19.218 23.2639 20.1803C23.2639 21.5346 22.1563 22.6302 20.7976 22.6106C19.5032 22.592 18.4386 21.5416 18.4037 20.2475C18.3846 19.5406 18.6678 18.8999 19.133 18.4442H10.0337C10.4841 18.8854 10.7639 19.5 10.7639 20.1803C10.7639 21.5611 9.6125 22.673 8.21745 22.6082C6.97873 22.5507 5.97131 21.5498 5.90621 20.3115C5.85595 19.3551 6.35916 18.5122 7.1237 18.0725L4.07478 3.16645H1.04167C0.466363 3.16645 0 2.70009 0 2.12478V1.43034C0 0.855035 0.466363 0.388672 1.04167 0.388672H5.49171C5.98654 0.388672 6.41306 0.736806 6.51224 1.22157L6.91007 3.16645H23.9579C24.6263 3.16645 25.1218 3.78715 24.9737 4.43898L22.9219 13.4668C22.8141 13.941 22.3925 14.2776 21.9061 14.2776ZM17.7083 7.68034H15.625V5.94423C15.625 5.56068 15.3141 5.24978 14.9306 5.24978H14.2361C13.8526 5.24978 13.5417 5.56068 13.5417 5.94423V7.68034H11.4583C11.0748 7.68034 10.7639 7.99123 10.7639 8.37478V9.06923C10.7639 9.45278 11.0748 9.76367 11.4583 9.76367H13.5417V11.4998C13.5417 11.8833 13.8526 12.1942 14.2361 12.1942H14.9306C15.3141 12.1942 15.625 11.8833 15.625 11.4998V9.76367H17.7083C18.0919 9.76367 18.4028 9.45278 18.4028 9.06923V8.37478C18.4028 7.99123 18.0919 7.68034 17.7083 7.68034Z" fill="#E9E7DA"/>
</svg>
