<svg width="25" height="26" viewBox="0 0 25 26" fill="none" xmlns="http://www.w3.org/2000/svg">
<path d="M12.5 0.5C5.59476 0.5 0 6.09476 0 13C0 19.9052 5.59476 25.5 12.5 25.5C19.4052 25.5 25 19.9052 25 13C25 6.09476 19.4052 0.5 12.5 0.5ZM15.378 18.1462L10.9325 14.9153C10.7762 14.7994 10.6855 14.6179 10.6855 14.4264V5.94355C10.6855 5.61089 10.9577 5.33871 11.2903 5.33871H13.7097C14.0423 5.33871 14.3145 5.61089 14.3145 5.94355V12.8841L17.5151 15.2127C17.7873 15.4093 17.8427 15.7873 17.6462 16.0595L16.2248 18.0151C16.0282 18.2823 15.6502 18.3427 15.378 18.1462Z" fill="black"/>
</svg>
