<svg width="33" height="42" viewBox="0 0 33 42" fill="none" xmlns="http://www.w3.org/2000/svg">
<path d="M18.2526 20.7608L32.2732 34.9455C33.2423 35.9259 33.2423 37.5113 32.2732 38.4813L29.9433 40.8384C28.9742 41.8188 27.4072 41.8188 26.4485 40.8384L16.5 30.7944L6.56186 40.8488C5.59278 41.8293 4.02577 41.8293 3.06701 40.8488L0.726804 38.4917C-0.242268 37.5113 -0.242268 35.9259 0.726804 34.9559L14.7474 20.7712C15.7165 19.7804 17.2835 19.7804 18.2526 20.7608ZM14.7474 0.735311L0.726804 14.92C-0.242268 15.9004 -0.242268 17.4858 0.726804 18.4558L3.0567 20.8129C4.02577 21.7934 5.59278 21.7934 6.55155 20.8129L16.4897 10.7585L26.4278 20.8129C27.3969 21.7934 28.9639 21.7934 29.9227 20.8129L32.2526 18.4558C33.2216 17.4754 33.2216 15.89 32.2526 14.92L18.232 0.735311C17.2835 -0.245104 15.7165 -0.245104 14.7474 0.735311Z" fill="#E9E7DA"/>
</svg>
