<svg width="84" height="102" viewBox="0 0 84 102" fill="none" xmlns="http://www.w3.org/2000/svg">
<path d="M41.16 40.28L42.6 39.6L43.16 38.84H43.4C43.84 38.48 44.2 38.08 44.48 37.68C44.76 37.32 44.92 36.88 45.12 36.44C46.48 37.32 47.88 38.04 49.32 38.68C50.76 39.28 52.24 39.68 53.84 39.88L55.16 39.6V39.32L55.84 39.2V39.08L55.44 38.68C53.84 37.96 52.28 37.28 50.68 36.56C49.08 35.84 47.6 34.88 46.2 33.64C46.4 32.72 46.64 31.88 47 31.04C47.36 30.24 47.56 29.36 47.64 28.48H47.92L48.04 28.2L47.92 27.8L46.84 27.44C46.44 27.44 45.96 27.48 45.44 27.52C44.92 27.64 44.56 27.76 44.2 27.96V28.36H43.92V28.48L44.96 28.88L44.48 31.92C43.92 31.56 43.36 31.2 42.88 30.84C42.36 30.52 41.72 30.4 41.04 30.48L41.44 28.88L42.08 28.48L42.6 27.16C43.56 26.64 44.64 26.2 45.72 25.88C46.8 25.6 47.92 25.2 48.96 24.76L49.36 24.12V23.6L48.96 23.32C48.24 23.32 47.52 23.32 46.76 23.32C46.04 23.32 45.32 23.44 44.72 23.72L44.6 24.12L43.16 24.76H42.76L43.16 21.72C43.76 21.64 44.36 21.44 44.92 21.16C45.52 20.88 46.08 20.68 46.56 20.4L47.24 19.32C46.96 18.92 46.52 18.72 45.92 18.8C45.28 18.92 44.76 18.88 44.32 18.68L43.64 18.84L43.52 19.08L42.88 19.2L42.6 19.72C42.08 20.08 41.52 20.32 40.88 20.4C40.24 20.52 39.68 20.64 39.16 20.8L39.04 21.04L37.44 21.72L37.32 22.28L36.52 22.52H36V22.4H35.84L36 22.92L36.88 23.44L37.84 23.32L38.48 23.6L39.84 23.16H40.2L39.72 25.32L38 25.6V25.84L37.32 26.08L36.88 26.76L35.84 27.16V27.44C35.56 27.48 35.32 27.6 35.12 27.72C34.88 27.88 34.64 27.92 34.28 27.8V27.96L34.68 28.36L36.4 28.76L36.64 29.24C37 29.36 37.32 29.28 37.6 29.08C37.88 28.88 38.16 28.72 38.48 28.64H38.88C38.6 30.56 38.08 32.4 37.16 34.12C36.28 35.84 35.44 37.56 34.68 39.32L34.8 39.88L36.52 38.84V38.56L37.16 38.28C37.8 37.32 38.32 36.32 38.76 35.32C39.2 34.28 39.72 33.28 40.2 32.32C40.92 32.44 41.52 32.72 42 33.24C42.52 33.8 43.04 34.32 43.52 34.84L43.4 35.88H43.16L42.32 37.72L41.68 38.28V38.68H41.44L41.28 38.96L40.6 39.2V39.32L39.92 39.72L41.16 40.28ZM23.92 32.96L26.84 31.52V31.24L28.16 30.48V30.2H28.56V29.92H28.84L29.52 31.4L30.4 31.64H30.96C30.84 30.44 30.88 29.2 31.04 28C31.16 26.8 31.52 25.76 32 24.76H31.88L31.48 25.32H31.08C31.28 24.08 31.44 22.8 31.52 21.56C31.64 20.36 31.8 19.12 32 17.88L33.08 17.24L33.32 16.84L33.16 16.16L30.28 14.96H29.24L29.08 15.36H28.56V15.8L26.32 16L26.04 17.12L24.84 18C24.44 18 24.04 17.92 23.72 17.72C23.4 17.56 23.16 17.32 22.88 16.96H22.6C22.6 17.92 22.76 18.8 23.08 19.52C23.36 20.28 23.6 21.08 23.8 22C23.8 22.68 23.84 23.4 23.88 24.12C23.92 24.8 23.8 25.48 23.52 26.08L23.92 27.52L23.4 29.4L22.32 30.48L22.88 32.32L23.92 32.96ZM26.68 28.64L26.32 28.88H26.04L26.2 28.2L26.04 27.52L26.32 22.4L28.28 21.88H28.84L29.08 25.6V27.04L26.68 28.64ZM28.56 20.28C28.2 20.36 27.84 20.44 27.44 20.52C27.04 20.64 26.64 20.76 26.32 20.92H25.64L25.12 20.12L25.52 18.28L26.56 17.36C26.84 17.48 27.08 17.6 27.36 17.8C27.64 18.04 27.96 18.16 28.28 18.16L28.68 19.32L28.56 20.28ZM38.36 18.96L39.84 18.84L40.2 18.28L39.92 17.6L38.88 16.96L35.84 17.12L36 17.48L38.36 18.96ZM44.48 17.6L44.72 17.36H44.96V17.48C45.68 17.32 46.36 17.12 46.96 16.84C47.6 16.56 48.2 16.2 48.84 15.8L49.36 14.96V14.56C49.16 14.16 48.88 13.88 48.48 13.76C48.12 13.68 47.68 13.6 47.24 13.52C46.8 13.44 46.44 13.52 46.08 13.72C45.72 13.96 45.32 14.12 44.96 14.16L45.92 14.28C45.84 14.92 45.68 15.52 45.4 16C45.12 16.56 44.84 17.12 44.48 17.6ZM42.48 17.24C42.56 17.04 42.72 16.96 42.96 16.96C43.16 16.96 43.32 16.96 43.52 16.96L43.8 16.44L43.64 15.88L42.6 15.36L40.36 15.52L40.88 15.8L41.04 16.44L42.48 17.24ZM37.84 15.64C38.64 14.84 39.6 14.28 40.64 14C41.68 13.68 42.6 13.08 43.4 12.2L44.2 11.24L44.96 10.84L45.52 9.92V8.88C45.16 8.8 44.76 8.72 44.32 8.6C43.88 8.52 43.48 8.4 43.16 8.2H42.6V8.64H42.2C41.84 9.68 41.4 10.68 40.76 11.56C40.12 12.48 39.52 13.48 38.88 14.44H38.76L37.84 15.64ZM49.6 92.24H49.76V91.92L50.8 91.64C51.52 89.72 52 87.68 52.32 85.6C52.6 83.52 53.04 81.52 53.52 79.52L53.36 78.56C53.76 77.48 54.04 76.32 54.2 75.04C54.36 73.76 54.64 72.6 55 71.48L55.96 71L55.64 70.4L53.68 69.96C51.96 69.76 50.36 69.84 48.84 70.12C47.32 70.4 45.8 70.8 44.28 71.32L43.08 71.16L42.6 69.52L40.32 68.48H40L40.8 69.52C40.92 70.6 40.8 71.64 40.44 72.6C40.08 73.56 39.64 74.52 39.12 75.4L41.4 72.68H41.68V73.32C43.04 73 44.32 72.64 45.56 72.28C46.8 71.92 48.08 71.52 49.28 71L51.68 71.16L51.52 71.92L51.68 73.48H52L52.16 74.04C52.04 76.68 51.84 79.24 51.52 81.72C51.16 84.16 50.64 86.6 50 88.88C49.84 89.2 49.6 89.36 49.28 89.36C48.96 89.36 48.64 89.36 48.36 89.36V89.68H47.92V89.36L48.04 89.8V90.12H47.92L48.36 91.04L48.84 91.16L49.6 92.24ZM33.2 90.88V90.56H33.84L34.12 89.8C33.96 87.88 33.84 85.92 33.84 83.88C33.84 81.88 33.68 79.88 33.36 77.96C33.56 76.68 33.72 75.32 33.76 73.88C33.8 72.48 34.04 71.16 34.4 69.96L36.08 69.2V68.28L34.88 67.8C33.16 68.12 31.56 68.56 30.04 69.12C28.52 69.68 26.96 70.16 25.36 70.56L27.16 70.88L27.92 72.08V74.2L25.36 75.12H25.04L25.2 73.44L25.04 72.08L24.4 71.92L23.84 72.24L22.32 71.76H21.84L22.92 74.96L23.52 75.12L23.68 76.04C23.48 78.12 23.32 80.28 23.28 82.44C23.24 84.6 22.68 86.56 21.68 88.28L21.84 88.92L23.84 88.12C24.08 87.12 24.28 86.08 24.4 85.08C24.52 84.12 24.6 83.08 24.72 82.08L30.64 79.2L31.08 78.44V78.28H30.92V77.96L28.36 78.92H27.92L28.68 76.48H29V76.76H29.24L29.4 74.8L31.08 74.04H30.76V73.44H29.56L29.24 71.76C29.08 71.48 28.84 71.24 28.52 71.08C28.2 70.96 27.84 70.92 27.44 71.04C27.84 70.6 28.44 70.36 29.2 70.32C29.96 70.28 30.6 70.04 31.08 69.64H31.68C31.48 69.96 31.36 70.28 31.32 70.64C31.28 71 31.12 71.32 30.92 71.6C31.52 73.44 31.8 75.36 31.76 77.44C31.72 79.48 31.88 81.52 32.32 83.44L32.16 88.28H31.84V88.76L32.16 88.92L32.92 90.72L33.2 90.88ZM36.84 87.8C38.04 87 39.36 86.36 40.76 85.88C42.12 85.36 43.44 84.8 44.72 84.2L46.84 85.24H47.44L47.6 84.2L47 83.12L46.4 82.56L45.36 82.08H43.36V82.24L44 82.72L43.84 83.76L42.6 84.36H42L41.84 83.76L42.32 81.16C42.8 81.08 43.32 81 43.84 80.88C44.32 80.76 44.76 80.6 45.2 80.4C45.4 79.8 45.68 79.24 46 78.64C46.36 78.08 46.64 77.52 46.84 76.92V75.72L46.08 75.56C45.6 75.56 45.08 75.6 44.52 75.64C43.96 75.68 43.48 75.88 43.04 76.16H42.6L42.76 75.24L42.44 74.2C42.16 74.4 41.84 74.52 41.48 74.64C41.12 74.76 40.76 74.96 40.48 75.24L40.64 75.88L41.24 76.16L41.08 76.6L40.04 76.76L40.48 76.92V77.24L41.4 77.4L41.56 78.28V79.96L40.36 79.64L40.2 79.2H39.88L39.72 78.76L37.16 77.8H36.4C36.8 78 37.2 78.32 37.52 78.72C37.88 79.16 38.24 79.4 38.68 79.48L39.24 80.88L40.2 81.32V81.76L41.24 81.48H41.56C41.44 81.88 41.4 82.32 41.4 82.72C41.4 83.2 41.24 83.6 40.92 83.92C40.36 84.4 39.72 84.84 39.08 85.24C38.4 85.68 37.68 86 37 86.16L36.68 87.72L36.84 87.8ZM33.68 86.48L33.52 86.6L33.36 86.48V85.88H33.68V86.48ZM51.08 86.48L50.92 86.6L50.64 85.56C51.04 84.64 51.28 83.64 51.4 82.6C51.52 81.52 51.64 80.52 51.84 79.48H52.16C52.04 80.64 51.92 81.68 51.72 82.72C51.52 83.8 51.28 84.88 51.08 86.04V86.48ZM43.36 79.36L42.92 79.64H42.6L42.44 78.76L42.92 77.24L43.68 77.4L44 77.96L43.84 79.2L43.36 79.36ZM27.16 79.2L25.92 79.64L25.04 79.2L25.2 76.48L27.6 75.56H27.92C27.92 76.16 27.88 76.8 27.76 77.48C27.64 78.12 27.44 78.68 27.16 79.2ZM21.68 69.04L23.36 67.8H23.68V67.96L25.76 66.76L27.16 64.64L28.2 64.96C28.08 65.68 27.88 66.28 27.52 66.84C27.2 67.44 26.8 68 26.4 68.6V68.76L28.84 66.76H29.12L28.68 67.56C29.16 67.24 29.6 66.84 29.96 66.36C30.32 65.96 30.68 65.52 31.08 65.12L31.56 64.48V64.04L30.92 63.6L29.88 63.76L29.72 63.6L29.4 63.76H28.36L28.2 63.12C27.92 62.92 27.52 62.8 27.12 62.8C26.64 62.8 26.24 62.64 25.92 62.24H25.2L25.04 62.72L25.2 63.44C24.88 64.44 24.4 65.44 23.76 66.32C23.08 67.24 22.4 68.08 21.56 68.92L21.68 69.04ZM40.48 67.56C41.6 67.36 42.6 67.12 43.6 66.84C44.56 66.6 45.56 66.28 46.56 65.88L47.6 66.04H48.36L49.12 64.96L50.36 62.56L51.84 61.32L51.4 60.4L49.24 59.8C47.72 60 46.28 60.32 44.88 60.72C43.48 61.12 42.08 61.48 40.64 61.76V61.92H41.4L42 65.4H42.16L42.6 64.8H43.04V65.72L42.16 65.88H40.48L39.72 64.36L37.16 62.8H36.68L37 63.44L38.04 64.2L39.24 66.48L39.72 66.32H40.2L40.48 67.56ZM43.84 65.4L43.68 65.56H43.04L43.2 64.64V63.6L41.84 62.24V61.92C42.28 62.04 42.68 62.08 43.16 62.08C43.6 62.08 44.04 62.2 44.4 62.4C44.4 62.88 44.4 63.4 44.4 63.96C44.4 64.52 44.2 65 43.84 65.4ZM45.48 64.96L45.36 65.12H44.88L45.36 64.04H45.92V64.2C45.92 63.8 45.88 63.4 45.84 63.04C45.8 62.72 45.64 62.4 45.36 62.08V61.76L46.56 61.32L47.44 61.48L47 64.48L45.48 64.96Z" fill="black"/>
<path d="M0.800781 46.002H4.48633V46.1367C4.14258 46.1367 3.9082 46.1621 3.7832 46.2129C3.67773 46.2598 3.5918 46.3359 3.52539 46.4414C3.45898 46.5469 3.42578 46.666 3.42578 46.7988C3.42578 46.9629 3.48828 47.1895 3.61328 47.4785L3.76562 47.8418L5.58789 52.2949L6.85938 48.457C7.02344 47.9648 7.10547 47.5977 7.10547 47.3555C7.10547 47.1758 7.07227 47.002 7.00586 46.834C6.94336 46.6621 6.85938 46.5234 6.75391 46.418C6.65234 46.3164 6.53516 46.2441 6.40234 46.2012C6.27344 46.1582 6.10742 46.1367 5.9043 46.1367V46.002H9.67188V46.1367C9.44141 46.1367 9.27344 46.1445 9.16797 46.1602C9.06641 46.1758 8.9707 46.209 8.88086 46.2598C8.76367 46.3301 8.66797 46.4316 8.59375 46.5645C8.52344 46.6934 8.48828 46.834 8.48828 46.9863C8.48828 47.127 8.54297 47.3711 8.65234 47.7188L10.0938 52.3652L11.7051 48.4102C11.9551 47.8047 12.0801 47.3359 12.0801 47.0039C12.0801 46.6562 11.9648 46.4102 11.7344 46.2656C11.5938 46.1797 11.3809 46.1367 11.0957 46.1367V46.002H13.8086V46.1367C13.5469 46.1641 13.3477 46.2148 13.2109 46.2891C13.0781 46.3594 12.9453 46.4902 12.8125 46.6816C12.6172 46.9551 12.373 47.4492 12.0801 48.1641L9.67188 54H9.43164L7.3457 47.7598L5.23047 54H4.9668L2.34766 47.6953L2.17188 47.2676C2.05078 46.9785 1.94922 46.7695 1.86719 46.6406C1.78516 46.5117 1.68555 46.4102 1.56836 46.3359C1.47461 46.2734 1.37305 46.2285 1.26367 46.2012C1.1543 46.1738 1 46.1523 0.800781 46.1367V46.002ZM18.7773 53.4316L18.877 53.4902C18.7363 53.9004 18.4141 54.1055 17.9102 54.1055C17.6328 54.1055 17.4023 54.0371 17.2188 53.9004C17.0977 53.8105 16.9727 53.6543 16.8438 53.4316C16.582 53.666 16.3848 53.8203 16.252 53.8945C15.998 54.0352 15.7031 54.1055 15.3672 54.1055C14.9375 54.1055 14.5957 54.002 14.3418 53.7949C14.0918 53.5879 13.9668 53.3086 13.9668 52.957C13.9668 52.6328 14.0703 52.3613 14.2773 52.1426C14.3945 52.0215 14.5293 51.9258 14.6816 51.8555C14.834 51.7812 15.0547 51.707 15.3438 51.6328C15.6836 51.5469 15.9336 51.4746 16.0938 51.416C16.2578 51.3574 16.3945 51.2871 16.5039 51.2051C16.6289 51.1152 16.7148 51.0098 16.7617 50.8887C16.8086 50.7676 16.832 50.5996 16.832 50.3848C16.832 49.9277 16.7461 49.5938 16.5742 49.3828C16.4961 49.2852 16.3945 49.207 16.2695 49.1484C16.1484 49.0898 16.0215 49.0605 15.8887 49.0605C15.7285 49.0605 15.5859 49.1016 15.4609 49.1836C15.3359 49.2656 15.2422 49.3789 15.1797 49.5234L15.0332 49.8633C14.9551 50.0469 14.8145 50.1387 14.6113 50.1387C14.4785 50.1387 14.3672 50.0957 14.2773 50.0098C14.1875 49.9199 14.1426 49.8086 14.1426 49.6758C14.1426 49.4766 14.2832 49.3086 14.5645 49.1719C14.7168 49.1016 14.9043 49.0449 15.127 49.002C15.3535 48.9551 15.5742 48.9316 15.7891 48.9316C16.0312 48.9316 16.2832 48.9629 16.5449 49.0254C16.8066 49.0879 17.0254 49.168 17.2012 49.2656C17.4551 49.4102 17.6133 49.5977 17.6758 49.8281C17.707 49.9453 17.7227 50.1426 17.7227 50.4199V52.5879C17.7227 52.9551 17.7383 53.2051 17.7695 53.3379C17.8359 53.6152 17.9961 53.7539 18.25 53.7539C18.3711 53.7539 18.4648 53.7324 18.5312 53.6895C18.6016 53.6465 18.6836 53.5605 18.7773 53.4316ZM16.8438 51.123C16.6328 51.2988 16.4004 51.4531 16.1465 51.5859C15.8613 51.7383 15.6641 51.8535 15.5547 51.9316C15.4453 52.0098 15.3457 52.1035 15.2559 52.2129C15.0723 52.4395 14.9805 52.7031 14.9805 53.0039C14.9805 53.2617 15.0508 53.4746 15.1914 53.6426C15.3359 53.8105 15.5176 53.8945 15.7363 53.8945C15.9277 53.8945 16.1074 53.8359 16.2754 53.7188C16.4473 53.5977 16.5762 53.4375 16.6621 53.2383C16.7832 52.9766 16.8438 52.5977 16.8438 52.1016V51.123ZM20.5586 49.834C20.6992 49.5879 20.8574 49.4023 21.0332 49.2773C21.3574 49.0469 21.7266 48.9316 22.1406 48.9316C22.3945 48.9316 22.5879 48.9883 22.7207 49.1016C22.8418 49.2031 22.9023 49.3281 22.9023 49.4766C22.9023 49.5859 22.8652 49.6758 22.791 49.7461C22.7207 49.8164 22.6289 49.8516 22.5156 49.8516C22.3828 49.8516 22.2676 49.7969 22.1699 49.6875L21.9883 49.4883C21.8438 49.3359 21.6738 49.2598 21.4785 49.2598C21.2129 49.2598 21.0059 49.4316 20.8574 49.7754C20.709 50.1191 20.6348 50.5977 20.6348 51.2109V52.3066L20.6406 52.752C20.6406 53.0176 20.6562 53.2129 20.6875 53.3379C20.7188 53.459 20.7793 53.5605 20.8691 53.6426C20.9785 53.748 21.1797 53.8281 21.4727 53.8828V54H18.8887V53.8828C19.123 53.8516 19.291 53.8086 19.3926 53.7539C19.4941 53.6953 19.5762 53.5977 19.6387 53.4609C19.6816 53.3711 19.7109 53.2363 19.7266 53.0566C19.7461 52.873 19.7559 52.6094 19.7559 52.2656V50.8184C19.7559 50.416 19.7461 50.1348 19.7266 49.9746C19.707 49.8105 19.6641 49.6777 19.5977 49.5762C19.5312 49.4668 19.4512 49.3887 19.3574 49.3418C19.2637 49.291 19.1289 49.2598 18.9531 49.248V49.1309L20.459 48.9199C20.5254 49.2754 20.5586 49.5801 20.5586 49.834ZM24.7305 48.9316C24.8008 49.2051 24.8457 49.4766 24.8652 49.7461C25.1113 49.4844 25.3867 49.2832 25.6914 49.1426C26 49.002 26.3203 48.9316 26.6523 48.9316C27.0195 48.9316 27.3262 49.0254 27.5723 49.2129C27.7207 49.3262 27.8906 49.5234 28.082 49.8047C28.3789 49.5039 28.6777 49.2832 28.9785 49.1426C29.2793 49.002 29.6035 48.9316 29.9512 48.9316C30.4199 48.9316 30.8008 49.0605 31.0938 49.3184C31.3906 49.5723 31.5391 49.9062 31.5391 50.3203V52.3066L31.5449 52.752C31.5449 53.0176 31.5605 53.2129 31.5918 53.3379C31.623 53.459 31.6816 53.5605 31.7676 53.6426C31.8809 53.748 32.084 53.8281 32.377 53.8828V54H29.793V53.8828C30.0273 53.8516 30.1934 53.8086 30.291 53.7539C30.3926 53.6953 30.4766 53.5977 30.543 53.4609C30.5859 53.3711 30.6152 53.2363 30.6309 53.0566C30.6504 52.873 30.6602 52.6113 30.6602 52.2715V51.1523C30.6602 50.7188 30.6465 50.4023 30.6191 50.2031C30.5918 50.0039 30.5391 49.834 30.4609 49.6934C30.2773 49.3613 29.9609 49.1953 29.5117 49.1953C29.0273 49.1953 28.6758 49.375 28.457 49.7344C28.2656 50.043 28.1699 50.5234 28.1699 51.1758V52.3066L28.1758 52.752C28.1758 53.0176 28.1914 53.2129 28.2227 53.3379C28.2539 53.459 28.3125 53.5605 28.3984 53.6426C28.5078 53.748 28.7109 53.8281 29.0078 53.8828V54H26.4238V53.8828C26.6582 53.8516 26.8242 53.8086 26.9219 53.7539C27.0234 53.6953 27.1074 53.5977 27.1738 53.4609C27.2168 53.3711 27.2461 53.2363 27.2617 53.0566C27.2812 52.873 27.291 52.6113 27.291 52.2715V51.1875C27.291 50.7305 27.2754 50.3965 27.2441 50.1855C27.2168 49.9707 27.1621 49.7969 27.0801 49.6641C26.9941 49.5234 26.873 49.4141 26.7168 49.3359C26.5605 49.2539 26.3848 49.2129 26.1895 49.2129C25.9668 49.2129 25.7578 49.2656 25.5625 49.3711C25.3672 49.4766 25.2129 49.6191 25.0996 49.7988C24.9941 49.959 24.918 50.1523 24.8711 50.3789C24.8281 50.6016 24.8066 50.8906 24.8066 51.2461V52.3184L24.8125 52.752C24.8125 53.0176 24.8281 53.2129 24.8594 53.3379C24.8906 53.459 24.9512 53.5605 25.041 53.6426C25.1504 53.748 25.3516 53.8281 25.6445 53.8828V54H23.0605V53.8828C23.2949 53.8516 23.4629 53.8086 23.5645 53.7539C23.666 53.6953 23.748 53.5977 23.8105 53.4609C23.8535 53.3711 23.8828 53.2363 23.8984 53.0566C23.918 52.873 23.9277 52.6094 23.9277 52.2656V50.8184C23.9277 50.416 23.918 50.1348 23.8984 49.9746C23.8789 49.8105 23.8359 49.6777 23.7695 49.5762C23.7031 49.4668 23.623 49.3887 23.5293 49.3418C23.4355 49.291 23.3008 49.2598 23.125 49.248V49.1309L24.7305 48.9316ZM38.4355 49.1309L40.3926 51.8496C40.666 51.3379 40.8574 50.9453 40.9668 50.6719C41.0762 50.3984 41.1309 50.166 41.1309 49.9746C41.1309 49.5957 40.8594 49.3672 40.3164 49.2891V49.1719H42.5957V49.2891C42.416 49.3047 42.2695 49.3359 42.1562 49.3828C42.043 49.4258 41.9355 49.4941 41.834 49.5879C41.6348 49.7754 41.3887 50.1738 41.0957 50.7832L40.9141 51.1582C40.8164 51.3691 40.6738 51.6445 40.4863 51.9844C40.6348 52.1797 40.8086 52.3906 41.0078 52.6172C41.2109 52.8398 41.3906 53.0234 41.5469 53.168C41.7695 53.3711 41.9629 53.5195 42.127 53.6133C42.2949 53.7031 42.457 53.748 42.6133 53.748C42.7812 53.748 42.9219 53.7012 43.0352 53.6074C43.1484 53.5137 43.248 53.3613 43.334 53.1504L43.4512 53.2031C43.2559 53.8672 42.8359 54.1992 42.1914 54.1992C41.9766 54.1992 41.752 54.1582 41.5176 54.0762C41.2832 53.9941 41.0703 53.8809 40.8789 53.7363C40.5859 53.5176 40.2832 53.2227 39.9707 52.8516C39.7988 53.1016 39.6582 53.2891 39.5488 53.4141C39.3223 53.668 39.0566 53.8633 38.752 54C38.4512 54.1328 38.1289 54.1992 37.7852 54.1992C37.4688 54.1992 37.1621 54.1406 36.8652 54.0234C36.5723 53.9062 36.332 53.7461 36.1445 53.543C35.7969 53.1719 35.623 52.7031 35.623 52.1367C35.623 51.5781 35.791 51.0703 36.127 50.6133C36.2598 50.4336 36.418 50.2656 36.6016 50.1094C36.7891 49.9492 37.0449 49.7637 37.3691 49.5527L37.4629 49.4883C37.2207 49.1445 37.0488 48.873 36.9473 48.6738C36.709 48.2129 36.5898 47.8008 36.5898 47.4375C36.5898 47.2109 36.6445 46.9863 36.7539 46.7637C36.8906 46.4707 37.0918 46.248 37.3574 46.0957C37.623 45.9434 37.9414 45.8672 38.3125 45.8672C38.7969 45.8672 39.1953 46 39.5078 46.2656C39.8203 46.5273 39.9766 46.8652 39.9766 47.2793C39.9766 47.584 39.8965 47.8555 39.7363 48.0938C39.5762 48.3281 39.3164 48.5586 38.957 48.7852C38.7031 48.9492 38.5293 49.0645 38.4355 49.1309ZM37.5918 49.6523C37.2676 49.8516 37.0156 50.1289 36.8359 50.4844C36.6562 50.8398 36.5664 51.2363 36.5664 51.6738C36.5664 51.9746 36.6133 52.2656 36.707 52.5469C36.8008 52.8281 36.9277 53.0664 37.0879 53.2617C37.2363 53.4375 37.4141 53.5742 37.6211 53.6719C37.832 53.7695 38.0527 53.8184 38.2832 53.8184C38.6465 53.8184 38.9707 53.7051 39.2559 53.4785C39.3613 53.3926 39.457 53.2969 39.543 53.1914C39.6289 53.0859 39.7363 52.9316 39.8652 52.7285L37.5918 49.6523ZM38.3242 49.002C38.5078 48.8574 38.6445 48.7305 38.7344 48.6211C38.8281 48.5117 38.9102 48.3809 38.9805 48.2285C39.1172 47.9395 39.1855 47.6289 39.1855 47.2969C39.1855 46.9062 39.0918 46.5957 38.9043 46.3652C38.7168 46.1348 38.4648 46.0195 38.1484 46.0195C37.875 46.0195 37.6543 46.1074 37.4863 46.2832C37.3184 46.459 37.2344 46.6875 37.2344 46.9688C37.2344 47.1367 37.2676 47.3047 37.334 47.4727C37.4043 47.6406 37.5352 47.8711 37.7266 48.1641C37.9102 48.4453 38.1094 48.7246 38.3242 49.002ZM50.0371 46.1836C49.791 46.1836 49.5273 46.1914 49.2461 46.207C48.6445 46.2383 48.1953 46.3145 47.8984 46.4355C47.6055 46.5566 47.3633 46.7656 47.1719 47.0625C46.9961 47.3359 46.8613 47.707 46.7676 48.1758L46.6328 48.1641L46.7383 46.002H54.666L54.7715 48.1641L54.6367 48.1758C54.5312 47.6328 54.3652 47.2227 54.1387 46.9453C53.916 46.6641 53.5898 46.4629 53.1602 46.3418C52.7969 46.2363 52.1816 46.1836 51.3145 46.1836V52.1602C51.3145 52.5586 51.3359 52.8555 51.3789 53.0508C51.4258 53.2422 51.5098 53.4004 51.6309 53.5254C51.7402 53.6387 51.8633 53.7207 52 53.7715C52.1406 53.8223 52.3223 53.8535 52.5449 53.8652V54H48.8008V53.8652C49.0273 53.8535 49.209 53.8223 49.3457 53.7715C49.4863 53.7207 49.6113 53.6387 49.7207 53.5254C49.8418 53.4004 49.9238 53.2422 49.9668 53.0508C50.0137 52.8594 50.0371 52.5625 50.0371 52.1602V46.1836ZM55.1816 51.5273C55.1816 50.8945 55.416 50.3301 55.8848 49.834C56.4551 49.2324 57.1367 48.9316 57.9297 48.9316C58.7227 48.9316 59.4023 49.2324 59.9688 49.834C60.4375 50.334 60.6719 50.9004 60.6719 51.5332C60.6719 52.1582 60.4492 52.7148 60.0039 53.2031C59.457 53.8047 58.7656 54.1055 57.9297 54.1055C57.0938 54.1055 56.4004 53.8047 55.8496 53.2031C55.6348 52.9688 55.4688 52.707 55.3516 52.418C55.2383 52.1289 55.1816 51.832 55.1816 51.5273ZM56.248 51.4629C56.248 52.1426 56.4004 52.7188 56.7051 53.1914C57.0488 53.7188 57.4688 53.9824 57.9648 53.9824C58.1758 53.9824 58.3809 53.9238 58.5801 53.8066C58.7793 53.6895 58.9512 53.5254 59.0957 53.3145C59.248 53.0957 59.3711 52.8223 59.4648 52.4941C59.5586 52.1621 59.6055 51.8418 59.6055 51.5332C59.6055 51.2129 59.5547 50.8906 59.4531 50.5664C59.3555 50.2383 59.2227 49.957 59.0547 49.7227C58.7344 49.2812 58.3418 49.0605 57.877 49.0605C57.4355 49.0605 57.0547 49.293 56.7344 49.7578C56.4102 50.2227 56.248 50.791 56.248 51.4629ZM65.4121 54.0996C65.3613 53.8652 65.3359 53.625 65.3359 53.3789C64.8477 53.8633 64.2695 54.1055 63.6016 54.1055C63.1133 54.1055 62.7207 53.9863 62.4238 53.748C62.1348 53.5137 61.9902 53.1816 61.9902 52.752V50.7129L61.9844 50.2676C61.9844 50.002 61.9688 49.8086 61.9375 49.6875C61.9062 49.5664 61.8477 49.4629 61.7617 49.377C61.6484 49.2715 61.4453 49.1934 61.1523 49.1426V49.0195H62.8691V51.9902C62.8691 52.4082 62.8828 52.7188 62.9102 52.9219C62.9414 53.1211 62.9961 53.2852 63.0742 53.4141C63.1602 53.5469 63.2832 53.6523 63.4434 53.7305C63.6035 53.8047 63.7832 53.8418 63.9824 53.8418C64.2012 53.8418 64.4062 53.7988 64.5977 53.7129C64.7891 53.627 64.9395 53.5098 65.0488 53.3613C65.1621 53.209 65.2363 53.0332 65.2715 52.834C65.3105 52.6348 65.3301 52.3066 65.3301 51.8496V50.7012L65.3242 50.2676C65.3242 50.002 65.3086 49.8086 65.2773 49.6875C65.25 49.5664 65.1914 49.4629 65.1016 49.377C64.9922 49.2715 64.7891 49.1934 64.4922 49.1426V49.0195H66.209V52.2012C66.209 52.6035 66.2188 52.8867 66.2383 53.0508C66.2617 53.2109 66.3047 53.3418 66.3672 53.4434C66.4375 53.5527 66.5195 53.6328 66.6133 53.6836C66.707 53.7305 66.8418 53.7598 67.0176 53.7715V53.8887L65.4121 54.0996ZM71.7168 52.8926L71.834 52.9336C71.6973 53.3477 71.4883 53.6465 71.207 53.8301C70.9258 54.0137 70.5391 54.1055 70.0469 54.1055C69.2578 54.1055 68.6387 53.8711 68.1895 53.4023C67.752 52.9414 67.5332 52.3594 67.5332 51.6562C67.5332 51.3125 67.5938 50.9727 67.7148 50.6367C67.8359 50.3008 68.002 50.0137 68.2129 49.7754C68.4512 49.502 68.7422 49.293 69.0859 49.1484C69.4336 49.0039 69.8125 48.9316 70.2227 48.9316C70.7891 48.9316 71.2324 49.0586 71.5527 49.3125C71.748 49.4688 71.8457 49.6406 71.8457 49.8281C71.8457 49.9531 71.8047 50.0586 71.7227 50.1445C71.6406 50.2266 71.541 50.2676 71.4238 50.2676C71.1699 50.2676 70.9824 50.082 70.8613 49.7109C70.8066 49.5391 70.7617 49.4219 70.7266 49.3594C70.6953 49.2969 70.6484 49.2422 70.5859 49.1953C70.4648 49.1055 70.3164 49.0605 70.1406 49.0605C69.9102 49.0605 69.6973 49.125 69.502 49.2539C69.3301 49.3672 69.1836 49.5098 69.0625 49.6816C68.9453 49.8496 68.8418 50.0625 68.752 50.3203C68.6152 50.7148 68.5469 51.1016 68.5469 51.4805C68.5469 51.8281 68.6094 52.168 68.7344 52.5C68.8594 52.832 69.0293 53.1094 69.2441 53.332C69.5801 53.6836 69.9746 53.8594 70.4277 53.8594C70.8027 53.8594 71.1133 53.7402 71.3594 53.502C71.4844 53.377 71.6035 53.1738 71.7168 52.8926ZM74.0723 45.7676V49.7812C74.209 49.6133 74.3301 49.4824 74.4355 49.3887C74.541 49.2949 74.668 49.2129 74.8164 49.1426C75.1016 49.002 75.4258 48.9316 75.7891 48.9316C76.25 48.9316 76.6309 49.0234 76.9316 49.207C77.1465 49.3438 77.293 49.5117 77.3711 49.7109C77.4531 49.9062 77.4941 50.2012 77.4941 50.5957V52.3066L77.5 52.752C77.5 53.0176 77.5156 53.2129 77.5469 53.3379C77.5781 53.459 77.6387 53.5605 77.7285 53.6426C77.8379 53.748 78.0391 53.8281 78.332 53.8828V54H75.748V53.8828C75.9551 53.8555 76.1016 53.8223 76.1875 53.7832C76.2773 53.7441 76.3574 53.6777 76.4277 53.584C76.498 53.4863 76.5469 53.3535 76.5742 53.1855C76.6016 53.0176 76.6152 52.7695 76.6152 52.4414V50.584C76.6152 50.3027 76.5938 50.0801 76.5508 49.916C76.5078 49.752 76.4355 49.6094 76.334 49.4883C76.1348 49.2578 75.8535 49.1426 75.4902 49.1426C74.5449 49.1426 74.0723 49.8887 74.0723 51.3809V52.3184L74.0781 52.752C74.0781 53.0176 74.0938 53.2129 74.125 53.3379C74.1562 53.459 74.2168 53.5605 74.3066 53.6426C74.416 53.748 74.6172 53.8281 74.9102 53.8828V54H72.3262V53.8828C72.5605 53.8516 72.7285 53.8086 72.8301 53.7539C72.9316 53.6953 73.0137 53.5977 73.0762 53.4609C73.1191 53.3711 73.1484 53.2363 73.1641 53.0566C73.1836 52.873 73.1934 52.6094 73.1934 52.2656V47.666C73.1934 47.2676 73.1836 46.9863 73.1641 46.8223C73.1445 46.6582 73.1016 46.5254 73.0352 46.4238C72.9688 46.3145 72.8887 46.2363 72.7949 46.1895C72.7012 46.1426 72.5664 46.1133 72.3906 46.1016V45.9785L74.0723 45.7676Z" fill="black"/>
</svg>
